# xmcd
#
# Track frame offsets:
#	182
#	15855
#	33337
#	46212
#	57735
#	68595
#	80977
#	94822
#	108285
#	120735
#	130755
#	142992
#	157722
#
# Disc length: 2410 seconds
#
# Revision: 0
# Processed by: cddbd v1.4PL0 Copyright (c) Steve Scherf et al.
# Submitted via: dBpowerAMP V4.0
#
DISCID=a109680d
DTITLE=Various Artist - Deep In The Soul Of Texas
DYEAR=1900
DGENRE=
TTITLE0=Track 01I Cried- - Joe Medwick
TTITLE1=Track02 Mustang Sally -  Soul Brothers
TTITLE2=Track03 Don't You Worry, Don't You Cry Citations
TTITLE3=Track04 The Boomerang -  Ernie K. Doe
TTITLE4=Track05 Working On Me -  Ivory Joe Hunter
TTITLE5=Track06 The Shoe Shy - Joe Huges
TTITLE6=Track07 Why Do You Treat Me Like A Tramp - Gashead
TTITLE7=Track08 I Found True Love - Oscar Perry
TTITLE8=Track09 Just Above A Whisper - Oscar Perry
TTITLE9=Track10 To You I Shall Cling -  O. V. Wright
TTITLE10=Track11 That's What It Is - Citations
TTITLE11=Track12 Nearer To You - Joe Medwick
TTITLE12=Track13 So Used To Having You Around, Parts 1&2 - Al "TNT" Braggs
EXTD=
EXTT0=
EXTT1=
EXTT2=
EXTT3=
EXTT4=
EXTT5=
EXTT6=
EXTT7=
EXTT8=
EXTT9=
EXTT10=
EXTT11=
EXTT12=
PLAYORDER=
